<?xml version="1.0" encoding="UTF-8" standalone="no"?>
<!-- Created with Inkscape (http://www.inkscape.org/) -->

<svg
   xmlns:dc="http://purl.org/dc/elements/1.1/"
   xmlns:cc="http://creativecommons.org/ns#"
   xmlns:rdf="http://www.w3.org/1999/02/22-rdf-syntax-ns#"
   xmlns:svg="http://www.w3.org/2000/svg"
   xmlns="http://www.w3.org/2000/svg"
   xmlns:sodipodi="http://sodipodi.sourceforge.net/DTD/sodipodi-0.dtd"
   xmlns:inkscape="http://www.inkscape.org/namespaces/inkscape"
   width="700mm"
   height="200mm"
   viewBox="0 0 700 200"
   version="1.1"
   id="svg8"
   inkscape:version="0.92.4 (5da689c313, 2019-01-14)"
   sodipodi:docname="logo-title.svg"
   inkscape:export-filename="C:\Users\balaz\Documents\Development\test-lite\Logo\logo-title.png"
   inkscape:export-xdpi="39.369999"
   inkscape:export-ydpi="39.369999">
  <defs
     id="defs2" />
  <sodipodi:namedview
     id="base"
     pagecolor="#ffffff"
     bordercolor="#666666"
     borderopacity="1.0"
     inkscape:pageopacity="0.0"
     inkscape:pageshadow="2"
     inkscape:zoom="0.49497475"
     inkscape:cx="1102.7849"
     inkscape:cy="828.80602"
     inkscape:document-units="mm"
     inkscape:current-layer="layer1"
     showgrid="true"
     inkscape:window-width="2560"
     inkscape:window-height="1377"
     inkscape:window-x="-8"
     inkscape:window-y="-8"
     inkscape:window-maximized="1" />
  <metadata
     id="metadata5">
    <rdf:RDF>
      <cc:Work
         rdf:about="">
        <dc:format>image/svg+xml</dc:format>
        <dc:type
           rdf:resource="http://purl.org/dc/dcmitype/StillImage" />
        <dc:title />
      </cc:Work>
    </rdf:RDF>
  </metadata>
  <g
     inkscape:label="Layer 1"
     inkscape:groupmode="layer"
     id="layer1"
     transform="translate(0,-97)">
    <flowRoot
       xml:space="preserve"
       id="flowRoot4526"
       style="font-style:normal;font-weight:normal;font-size:40px;line-height:1.25;font-family:sans-serif;letter-spacing:0px;word-spacing:0px;fill:#000000;fill-opacity:1;stroke:none"
       transform="matrix(0.26458333,0,0,0.26458333,0,97)"><flowRegion
         id="flowRegion4528"><rect
           id="rect4530"
           width="530"
           height="500"
           x="100"
           y="115.90552" /></flowRegion><flowPara
         id="flowPara4532"
         style="font-style:normal;font-variant:normal;font-weight:normal;font-stretch:normal;font-family:'Grado Gradoo NF';-inkscape-font-specification:'Grado Gradoo NF'" /></flowRoot>    <flowRoot
       xml:space="preserve"
       id="flowRoot831"
       style="font-style:normal;font-weight:normal;font-size:40px;line-height:1.25;font-family:sans-serif;letter-spacing:0px;word-spacing:0px;fill:#3c3c3c;fill-opacity:1;stroke:none"
       transform="matrix(0.26458333,0,0,0.26458333,-15.875,45.015913)"><flowRegion
         id="flowRegion833"
         style="fill:#3c3c3c;fill-opacity:1"><rect
           id="rect835"
           width="2240"
           height="720"
           x="880"
           y="275.90552"
           style="fill:#3c3c3c;fill-opacity:1" /></flowRegion><flowPara
         id="flowPara837"
         style="font-style:normal;font-variant:normal;font-weight:normal;font-stretch:normal;font-size:566.66668701px;font-family:'Grado Gradoo NF';-inkscape-font-specification:'Grado Gradoo NF';fill:#3c3c3c;fill-opacity:1">Test Lite</flowPara></flowRoot>    <flowRoot
       transform="matrix(0.26458333,0,0,0.26458333,-20.410714,37.456389)"
       xml:space="preserve"
       id="flowRoot831-1"
       style="font-style:normal;font-weight:normal;font-size:40px;line-height:1.25;font-family:sans-serif;letter-spacing:0px;word-spacing:0px;fill:#7851a9;fill-opacity:1;stroke:none"><flowRegion
         id="flowRegion833-2"
         style="fill:#7851a9;fill-opacity:1"><rect
           id="rect835-5"
           width="2240"
           height="720"
           x="880"
           y="275.90552"
           style="fill:#7851a9;fill-opacity:1" /></flowRegion><flowPara
         id="flowPara837-6"
         style="font-style:normal;font-variant:normal;font-weight:normal;font-stretch:normal;font-size:566.66668701px;font-family:'Grado Gradoo NF';-inkscape-font-specification:'Grado Gradoo NF';fill:#7851a9;fill-opacity:1">Test Lite</flowPara></flowRoot>    <rect
       id="rect3713-7"
       width="170.00002"
       height="170.00002"
       x="22"
       y="118.99998"
       style="fill:#522d80;fill-opacity:1;stroke:none;stroke-width:0.26458332"
       rx="20"
       ry="20" />
    <rect
       id="rect3713-9-7"
       width="170.00003"
       height="170.00003"
       x="8"
       y="104.99995"
       style="fill:#7851a9;fill-opacity:1;stroke:none;stroke-width:0.26458332"
       rx="20"
       ry="20" />
    <g
       transform="matrix(0.27159805,0,0,0.25932552,29.955653,127.69295)"
       id="g24-0-8"
       style="fill:#3c3c3c;fill-opacity:1;stroke:#3c3c3c;stroke-width:8.50720596;stroke-linejoin:round;stroke-miterlimit:4;stroke-dasharray:none;stroke-opacity:1">
      <g
         id="g22-9-7"
         style="fill:#3c3c3c;fill-opacity:1;stroke:#3c3c3c;stroke-width:8.50720596;stroke-linejoin:round;stroke-miterlimit:4;stroke-dasharray:none;stroke-opacity:1">
        <path
           inkscape:connector-curvature="0"
           d="M 454.416,407.678 326,179.381 V 58.286 C 337.641,54.159 346,43.038 346,30 346,13.458 332.542,0 316,0 H 196 c -16.542,0 -30,13.458 -30,30 0,13.038 8.359,24.159 20,28.286 V 179.381 L 57.584,407.678 C 45.256,429.594 45.475,455.637 58.168,477.341 70.86,499.043 93.448,512 118.59,512 h 274.82 c 25.142,0 47.729,-12.957 60.422,-34.659 12.693,-21.704 12.912,-47.747 0.584,-69.663 z M 204.716,186.902 C 205.558,185.406 206,183.717 206,182 V 60 h 10 c 5.522,0 10,-4.478 10,-10 0,-5.522 -4.478,-10 -10,-10 h -20 c -5.514,0 -10,-4.486 -10,-10 0,-5.514 4.486,-10 10,-10 h 120 c 5.514,0 10,4.486 10,10 0,5.514 -4.486,10 -10,10 h -20 c -5.522,0 -10,4.478 -10,10 0,5.522 4.478,10 10,10 h 10 v 122 c 0,1.718 0.442,3.405 1.284,4.902 l 58.941,104.787 c -35.995,-2.915 -71.865,4.365 -104.821,21.43 -42.366,21.924 -89.529,25.784 -134,11.227 z M 436.567,467.244 C 427.502,482.745 411.368,492 393.41,492 H 118.59 c -17.958,0 -34.092,-9.255 -43.157,-24.756 -9.067,-15.503 -9.224,-34.106 -0.417,-49.762 l 42.408,-75.392 c 20.576,7.185 41.84,10.812 63.437,10.812 3.197,0 6.402,-0.079 9.613,-0.238 27.905,-1.382 54.862,-8.711 80.124,-21.784 33.792,-17.496 70.959,-23.536 107.783,-17.581 l 58.604,104.183 c 8.806,15.656 8.65,34.259 -0.418,49.762 z"
           id="path20-6-1"
           style="fill:#3c3c3c;fill-opacity:1;stroke:#3c3c3c;stroke-width:8.50720596;stroke-linejoin:round;stroke-miterlimit:4;stroke-dasharray:none;stroke-opacity:1" />
      </g>
    </g>
    <g
       transform="matrix(0.27159805,0,0,0.25932552,23.480252,123.62225)"
       id="g24-0-2"
       style="fill:#ffffff;fill-opacity:1;stroke:#ffffff;stroke-width:8.50720596;stroke-linejoin:round;stroke-miterlimit:4;stroke-dasharray:none;stroke-opacity:1">
      <g
         id="g22-9-8"
         style="fill:#ffffff;fill-opacity:1;stroke:#ffffff;stroke-width:8.50720596;stroke-linejoin:round;stroke-miterlimit:4;stroke-dasharray:none;stroke-opacity:1">
        <path
           inkscape:connector-curvature="0"
           d="M 454.416,407.678 326,179.381 V 58.286 C 337.641,54.159 346,43.038 346,30 346,13.458 332.542,0 316,0 H 196 c -16.542,0 -30,13.458 -30,30 0,13.038 8.359,24.159 20,28.286 V 179.381 L 57.584,407.678 C 45.256,429.594 45.475,455.637 58.168,477.341 70.86,499.043 93.448,512 118.59,512 h 274.82 c 25.142,0 47.729,-12.957 60.422,-34.659 12.693,-21.704 12.912,-47.747 0.584,-69.663 z M 204.716,186.902 C 205.558,185.406 206,183.717 206,182 V 60 h 10 c 5.522,0 10,-4.478 10,-10 0,-5.522 -4.478,-10 -10,-10 h -20 c -5.514,0 -10,-4.486 -10,-10 0,-5.514 4.486,-10 10,-10 h 120 c 5.514,0 10,4.486 10,10 0,5.514 -4.486,10 -10,10 h -20 c -5.522,0 -10,4.478 -10,10 0,5.522 4.478,10 10,10 h 10 v 122 c 0,1.718 0.442,3.405 1.284,4.902 l 58.941,104.787 c -35.995,-2.915 -71.865,4.365 -104.821,21.43 -42.366,21.924 -89.529,25.784 -134,11.227 z M 436.567,467.244 C 427.502,482.745 411.368,492 393.41,492 H 118.59 c -17.958,0 -34.092,-9.255 -43.157,-24.756 -9.067,-15.503 -9.224,-34.106 -0.417,-49.762 l 42.408,-75.392 c 20.576,7.185 41.84,10.812 63.437,10.812 3.197,0 6.402,-0.079 9.613,-0.238 27.905,-1.382 54.862,-8.711 80.124,-21.784 33.792,-17.496 70.959,-23.536 107.783,-17.581 l 58.604,104.183 c 8.806,15.656 8.65,34.259 -0.418,49.762 z"
           id="path20-6-6"
           style="fill:#ffffff;fill-opacity:1;stroke:#ffffff;stroke-width:8.50720596;stroke-linejoin:round;stroke-miterlimit:4;stroke-dasharray:none;stroke-opacity:1" />
      </g>
    </g>
  </g>
</svg>
